<svg width="185" height="62" viewBox="0 0 185 62" fill="none" xmlns="http://www.w3.org/2000/svg">
<path d="M170.266 0H11.6266C10.5904 0.0159692 9.55688 0.109227 8.53451 0.279C7.51232 0.456099 6.52224 0.785228 5.59702 1.2555C4.66907 1.73198 3.82344 2.35474 3.09242 3.1C2.34973 3.82987 1.73322 4.67844 1.26809 5.611C0.799015 6.53859 0.470726 7.5312 0.294078 8.556C0.121546 9.58032 0.0336382 10.6172 0.03125 11.656C0.03125 12.1365 0.03125 12.617 0.03125 13.082V48.918C0.03125 49.3985 0.03125 49.8635 0.03125 50.344C0.0336382 51.3828 0.121546 52.4197 0.294078 53.444C0.470584 54.4738 0.798843 55.4715 1.26809 56.4045C1.73753 57.3298 2.35365 58.1726 3.09242 58.9C3.82043 59.6446 4.66683 60.2627 5.59702 60.729C6.52224 61.1993 7.51232 61.5284 8.53451 61.7055C9.55688 61.8753 10.5904 61.9685 11.6266 61.9845H173.374C174.41 61.9692 175.444 61.876 176.466 61.7055C177.493 61.5261 178.488 61.1971 179.419 60.729C180.347 60.2586 181.193 59.641 181.924 58.9C182.653 58.1645 183.268 57.3232 183.748 56.4045C184.205 55.468 184.528 54.4713 184.707 53.444C184.877 52.4191 184.97 51.3829 184.985 50.344C184.985 49.8635 184.985 49.3985 184.985 48.918V13.082C184.985 12.617 184.985 12.1365 184.985 11.656C184.97 10.6171 184.877 9.58089 184.707 8.556C184.528 7.53368 184.205 6.54205 183.748 5.611C183.272 4.685 182.657 3.83806 181.924 3.1C181.189 2.36361 180.344 1.74654 179.419 1.271C178.488 0.80286 177.493 0.473876 176.466 0.2945C175.444 0.124038 174.41 0.0307757 173.374 0.0155H170.282L170.266 0Z" fill="#B7B7B7"/>
<path d="M13.0486 60.6515H11.6571C10.6895 60.6632 9.72264 60.5958 8.766 60.45C7.86346 60.2725 6.99295 59.959 6.1841 59.52C5.38666 59.127 4.66033 58.6031 4.0351 57.97C3.40292 57.338 2.88039 56.6045 2.48905 55.8C2.07731 54.9905 1.7906 54.1229 1.63872 53.227C1.48154 52.2687 1.39884 51.2997 1.39136 50.3285C1.39136 50.003 1.39136 48.9025 1.39136 48.9025V13.082C1.39136 13.082 1.39136 12.0125 1.39136 11.7025C1.39821 10.7314 1.48092 9.76223 1.63872 8.80402C1.78025 7.89777 2.06192 7.01921 2.47359 6.20002C2.8616 5.39351 3.38451 4.65957 4.01964 4.03002C4.65589 3.40311 5.38624 2.88009 6.1841 2.48002C6.9916 2.06722 7.85694 1.77978 8.75054 1.62752C9.71148 1.46913 10.6833 1.38621 11.6571 1.37952H173.358C174.322 1.38769 175.283 1.4706 176.234 1.62752C177.132 1.78303 178.001 2.07028 178.816 2.48002C180.419 3.29332 181.724 4.59585 182.542 6.20002C182.944 7.00675 183.225 7.86852 183.377 8.75752C183.531 9.72162 183.619 10.6953 183.639 11.6715V13.051C183.639 13.64 183.639 14.198 183.639 14.756V47.213C183.639 47.7865 183.639 48.329 183.639 48.887V50.3285C183.619 51.2894 183.532 52.2476 183.377 53.196C183.23 54.096 182.948 54.9687 182.542 55.7845C182.143 56.5803 181.622 57.3075 180.996 57.939C180.365 58.5728 179.634 59.0967 178.831 59.489C178.027 59.9457 177.156 60.2701 176.249 60.45C175.294 60.6114 174.327 60.6943 173.358 60.698H171.967H13.0486V60.6515Z" fill="black"/>
<path d="M38.2956 31.465C38.3092 30.1704 38.6513 28.9007 39.2896 27.7753C39.9279 26.6499 40.8415 25.706 41.9443 25.0325C41.2437 24.0312 40.32 23.2074 39.2466 22.6263C38.1732 22.0451 36.9794 21.7227 35.7601 21.6845C33.1782 21.4055 30.6581 23.2345 29.3285 23.2345C27.9989 23.2345 25.9427 21.6845 23.7473 21.6845C22.3288 21.7307 20.9465 22.1449 19.7353 22.8865C18.5241 23.6282 17.5253 24.6719 16.8365 25.916C13.9145 31.1705 16.0789 38.75 18.9391 42.997C20.3769 45.0585 22.0312 47.3525 24.2421 47.2595C26.4529 47.1665 27.1795 45.8955 29.7769 45.8955C32.3743 45.8955 33.0854 47.2595 35.3272 47.213C37.569 47.1665 39.0841 45.1515 40.4601 43.0745C41.4874 41.6104 42.2803 39.9944 42.8101 38.285C41.4713 37.7202 40.3287 36.7717 39.5256 35.5584C38.7225 34.3451 38.2946 32.9211 38.2956 31.465Z" fill="white"/>
<path d="M34.0131 18.9255C35.2625 17.4133 35.8777 15.4739 35.7292 13.516C33.8128 13.7233 32.0428 14.641 30.7664 16.089C29.5154 17.5232 28.8817 19.3957 29.0039 21.297C29.9633 21.3065 30.9123 21.098 31.7798 20.6873C32.6474 20.2766 33.4109 19.6743 34.0131 18.9255Z" fill="white"/>
<path d="M65.3979 42.067H58.0851L56.3226 47.275H53.2305L60.1568 28.024H63.388L70.3143 47.275H67.2222L65.3979 42.067ZM58.8426 39.6645H64.6403L61.8419 31.217H61.7646L58.8426 39.6645Z" fill="white"/>
<path d="M85.2801 40.3C85.2801 44.6555 82.9455 47.461 79.436 47.461C78.5406 47.4989 77.6525 47.2836 76.8734 46.8396C76.0942 46.3955 75.4553 45.7407 75.0298 44.95V51.894H72.0923V33.294H74.8752V35.65C75.3271 34.8706 75.9811 34.2284 76.7678 33.7918C77.5545 33.3551 78.4445 33.1402 79.3432 33.17C82.9455 33.0925 85.2801 35.898 85.2801 40.3ZM82.3271 40.3C82.3271 37.4635 80.7811 35.65 78.6321 35.65C76.4831 35.65 74.9525 37.5565 74.9525 40.3C74.9525 43.0435 76.4985 45.0275 78.6321 45.0275C80.7656 45.0275 82.3271 43.121 82.3271 40.3Z" fill="white"/>
<path d="M100.679 40.3C100.679 44.6555 98.3596 47.461 94.8501 47.461C93.9543 47.5008 93.0656 47.2862 92.2861 46.842C91.5066 46.3978 90.868 45.742 90.4438 44.95V51.894H87.5063V33.294H90.2892V35.65C90.7399 34.8729 91.3915 34.2323 92.1752 33.7958C92.9589 33.3593 93.8457 33.1431 94.7418 33.17C98.3441 33.0925 100.679 35.898 100.679 40.3ZM97.7257 40.3C97.7257 37.4635 96.2724 35.65 94.0307 35.65C91.7889 35.65 90.3665 37.5565 90.3665 40.3C90.3665 43.0435 91.8353 44.95 94.0307 44.95C96.2261 44.95 97.7257 43.121 97.7257 40.3Z" fill="white"/>
<path d="M110.867 41.85C111.084 43.7565 112.923 44.95 115.505 44.95C118.087 44.95 119.664 43.6945 119.664 41.974C119.664 40.2535 118.613 39.587 116.124 38.967L113.635 38.3625C110.11 37.51 108.486 35.867 108.486 33.1855C108.486 29.853 111.362 27.5745 115.459 27.5745C119.556 27.5745 122.308 29.853 122.401 33.1855H119.448C119.278 31.2635 117.685 30.0855 115.382 30.0855C113.078 30.0855 111.486 31.248 111.486 32.9685C111.486 34.317 112.491 35.123 114.964 35.743L117.082 36.2545C121.025 37.1845 122.664 38.781 122.664 41.5865C122.664 45.198 119.788 47.4455 115.242 47.4455C110.991 47.4455 108.115 45.2445 107.93 41.7725L110.867 41.85Z" fill="white"/>
<path d="M128.863 29.915V33.232H131.522V35.5105H128.863V43.2605C128.863 44.454 129.389 45.012 130.564 45.012C130.878 45.0313 131.193 45.0313 131.507 45.012V47.275C130.997 47.3713 130.479 47.4181 129.961 47.4145C127.116 47.4145 126.018 46.345 126.018 43.617V35.5105H123.931V33.232H125.972V29.915H128.863Z" fill="white"/>
<path d="M133.053 40.3C133.053 35.8825 135.65 33.108 139.701 33.108C143.752 33.108 146.334 35.8825 146.334 40.3C146.334 44.7175 143.783 47.4455 139.701 47.4455C135.619 47.4455 133.053 44.6865 133.053 40.3ZM143.412 40.3C143.412 37.2775 142.02 35.4795 139.701 35.4795C137.382 35.4795 136.052 37.2 136.052 40.3C136.052 43.4 137.428 45.1205 139.763 45.1205C142.097 45.1205 143.412 43.2915 143.412 40.3Z" fill="white"/>
<path d="M148.714 33.232H151.513V35.65C151.7 34.9051 152.137 34.2475 152.751 33.7875C153.365 33.3275 154.117 33.093 154.883 33.1235C155.216 33.1181 155.549 33.1545 155.873 33.232V35.929C155.47 35.7611 155.041 35.6666 154.605 35.65C154.173 35.6183 153.74 35.6836 153.336 35.8414C152.933 35.9991 152.57 36.2451 152.274 36.5615C151.977 36.8779 151.755 37.2567 151.623 37.6702C151.492 38.0837 151.454 38.5215 151.513 38.9515V47.275H148.714V33.232Z" fill="white"/>
<path d="M169.107 43.152C168.72 45.694 166.247 47.4455 163.093 47.4455C159.011 47.4455 156.491 44.702 156.491 40.3155C156.491 35.929 159.026 33.0615 162.969 33.0615C166.911 33.0615 169.277 35.7275 169.277 39.99V40.9665H159.382V41.1525C159.338 41.6689 159.404 42.1888 159.575 42.6778C159.746 43.1668 160.02 43.6137 160.376 43.9889C160.733 44.3641 161.165 44.659 161.644 44.8541C162.123 45.0492 162.638 45.14 163.154 45.1205C163.832 45.184 164.513 45.0268 165.095 44.6723C165.677 44.3177 166.129 43.7846 166.386 43.152H169.107ZM159.398 38.9515H166.401C166.427 38.4878 166.357 38.0238 166.195 37.5887C166.033 37.1536 165.783 36.7568 165.46 36.4234C165.138 36.0899 164.75 35.827 164.321 35.6512C163.892 35.4755 163.432 35.3906 162.969 35.402C162.502 35.4 162.039 35.4902 161.607 35.6675C161.175 35.8447 160.782 36.1056 160.45 36.4352C160.118 36.7648 159.855 37.1567 159.674 37.5884C159.494 38.0202 159.4 38.4834 159.398 38.9515Z" fill="white"/>
<path d="M55.1475 22.785V13.485H58.858C60.5895 13.485 61.6254 14.3685 61.6254 15.7945C61.6307 16.252 61.4805 16.6978 61.1995 17.0584C60.9185 17.419 60.5235 17.6729 60.0793 17.7785V17.887C60.6411 17.9306 61.1642 18.1907 61.539 18.6126C61.9137 19.0345 62.1109 19.5855 62.0892 20.15C62.0892 21.7775 60.9142 22.7695 58.9971 22.7695L55.1475 22.785ZM56.5853 17.453H58.2859C59.5537 17.453 60.203 16.988 60.203 16.1045C60.203 15.221 59.5846 14.756 58.5178 14.756H56.5853V17.453ZM58.657 21.5605C59.9402 21.5605 60.6205 21.0335 60.6205 20.0105C60.6205 18.9875 59.9247 18.6 58.5642 18.6H56.5853V21.576L58.657 21.5605Z" fill="white"/>
<path d="M63.5581 20.801C63.5581 19.5455 64.5012 18.8325 66.1555 18.724L68.0262 18.6V17.9955C68.0262 17.267 67.5314 16.8485 66.6038 16.8485C65.6762 16.8485 65.3051 17.1275 65.1505 17.6235H63.8209C63.9601 16.4145 65.0887 15.655 66.6657 15.655C68.2426 15.655 69.3867 16.523 69.3867 17.9955V22.785H68.0262V21.793C67.8082 22.1468 67.4996 22.4355 67.1325 22.6291C66.7654 22.8227 66.3533 22.914 65.939 22.8935C65.6418 22.9333 65.3395 22.9089 65.0524 22.8219C64.7654 22.7349 64.5002 22.5874 64.2747 22.3892C64.0492 22.191 63.8686 21.9468 63.745 21.6729C63.6214 21.3989 63.5577 21.1017 63.5581 20.801ZM68.0262 20.15V19.561L66.3255 19.6695C65.367 19.6695 64.9341 20.0725 64.9341 20.677C64.9341 21.2815 65.4752 21.669 66.2173 21.669C66.4363 21.6925 66.6578 21.6714 66.8685 21.6071C67.0792 21.5429 67.2748 21.4366 67.4437 21.2949C67.6125 21.1531 67.7511 20.9786 67.8512 20.7819C67.9513 20.5852 68.0108 20.3703 68.0262 20.15Z" fill="white"/>
<path d="M71.3811 13.7329C71.3809 13.619 71.404 13.5062 71.4488 13.4015C71.4936 13.2968 71.5593 13.2024 71.6418 13.124C71.7243 13.0457 71.8219 12.985 71.9286 12.9458C72.0353 12.9066 72.1489 12.8896 72.2624 12.8959C72.372 12.8959 72.4806 12.9176 72.5818 12.9597C72.6831 13.0017 72.7752 13.0634 72.8527 13.1411C72.9302 13.2188 72.9917 13.3111 73.0337 13.4126C73.0756 13.5142 73.0972 13.623 73.0972 13.7329C73.0972 13.8429 73.0756 13.9517 73.0337 14.0533C72.9917 14.1548 72.9302 14.2471 72.8527 14.3248C72.7752 14.4025 72.6831 14.4642 72.5818 14.5062C72.4806 14.5483 72.372 14.5699 72.2624 14.5699C72.1489 14.5763 72.0353 14.5593 71.9286 14.5201C71.8219 14.4809 71.7243 14.4202 71.6418 14.3419C71.5593 14.2635 71.4936 14.1691 71.4488 14.0644C71.404 13.9597 71.3809 13.8469 71.3811 13.7329ZM71.5821 15.7944H72.9581V22.7849H71.5821V15.7944Z" fill="white"/>
<path d="M77.6736 20.3051L76.1275 22.7851H74.5815L76.8851 19.3131L74.5505 15.7946H76.0966L77.6426 18.2591H77.7509L79.2969 15.7946H80.8429L78.5393 19.2511L80.8584 22.7851H79.3124L77.7663 20.3051H77.6736Z" fill="white"/>
<path d="M82.0798 20.801C82.0798 19.5455 83.0075 18.8325 84.6617 18.724L86.5788 18.6V17.9955C86.5788 17.267 86.0996 16.8485 85.1565 16.8485C84.2134 16.8485 83.8578 17.1275 83.7032 17.6235H82.3736C82.5127 16.4145 83.6413 15.655 85.2183 15.655C86.7953 15.655 87.9548 16.523 87.9548 17.9955V22.785H86.5788V21.793H86.4706C86.2527 22.1468 85.9441 22.4355 85.577 22.6291C85.2099 22.8227 84.7977 22.914 84.3834 22.8935C84.0922 22.9216 83.7983 22.8884 83.5206 22.796C83.2429 22.7037 82.9875 22.5543 82.7707 22.3573C82.5539 22.1604 82.3804 21.9203 82.2615 21.6523C82.1425 21.3843 82.0806 21.0944 82.0798 20.801ZM86.5788 20.15V19.561L84.8782 19.6695C83.9196 19.6695 83.4867 20.0725 83.4867 20.677C83.4867 21.2815 84.0279 21.669 84.7854 21.669C85.0036 21.6925 85.2243 21.6713 85.4341 21.6069C85.6439 21.5424 85.8385 21.436 86.0061 21.294C86.1738 21.1521 86.3109 20.9775 86.4094 20.7808C86.5078 20.5842 86.5655 20.3696 86.5788 20.15Z" fill="white"/>
<path d="M90.0728 15.7945H91.3869V16.8795H91.4951C91.6421 16.5053 91.9042 16.1879 92.2434 15.9733C92.5826 15.7586 92.9812 15.658 93.3813 15.686C93.5814 15.6598 93.7841 15.6598 93.9843 15.686V17.05C93.7322 17.0282 93.4787 17.0282 93.2267 17.05C93.0073 17.0287 92.7858 17.0525 92.5758 17.1199C92.3658 17.1872 92.1717 17.2968 92.0054 17.4418C91.839 17.5869 91.7039 17.7643 91.6082 17.9635C91.5125 18.1626 91.4582 18.3792 91.4487 18.6V22.785H90.0728V15.7945Z" fill="white"/>
<path d="M99.2872 15.7946H100.601V16.9106H100.71C100.884 16.5143 101.177 16.1821 101.549 15.96C101.92 15.7379 102.35 15.6368 102.781 15.6706C103.115 15.6533 103.448 15.7104 103.757 15.8378C104.066 15.9652 104.342 16.1597 104.567 16.4073C104.792 16.6549 104.959 16.9494 105.057 17.2696C105.154 17.5899 105.18 17.9278 105.131 18.2591V22.7851H103.755V18.6001C103.755 17.4686 103.276 16.9106 102.209 16.9106C101.978 16.8919 101.745 16.9257 101.528 17.0095C101.312 17.0933 101.117 17.225 100.958 17.3948C100.799 17.5645 100.68 17.768 100.61 17.9901C100.541 18.2122 100.522 18.4471 100.555 18.6776V22.7851H99.179L99.2872 15.7946Z" fill="white"/>
<path d="M106.925 20.801C106.925 19.5455 107.852 18.8325 109.522 18.724L111.408 18.6V17.9955C111.408 17.267 110.913 16.8485 109.97 16.8485C109.027 16.8485 108.672 17.1275 108.517 17.6235H107.187C107.342 16.4145 108.455 15.655 110.032 15.655C111.609 15.655 112.769 16.523 112.769 17.9955V22.785H111.439V21.793H111.315C111.099 22.148 110.79 22.4376 110.423 22.6313C110.055 22.8251 109.643 22.9156 109.228 22.8935C108.937 22.9216 108.643 22.8884 108.365 22.796C108.088 22.7037 107.832 22.5543 107.615 22.3573C107.399 22.1604 107.225 21.9203 107.106 21.6523C106.987 21.3843 106.925 21.0944 106.925 20.801ZM111.408 20.212V19.623L109.707 19.7315C108.749 19.7315 108.301 20.1345 108.301 20.739C108.301 21.3435 108.857 21.731 109.599 21.731C109.823 21.7546 110.05 21.7316 110.264 21.6635C110.479 21.5955 110.677 21.4838 110.847 21.3354C111.017 21.1871 111.154 21.0053 111.251 20.8013C111.347 20.5974 111.401 20.3757 111.408 20.15V20.212Z" fill="white"/>
</svg>
