<svg width="233" height="61" viewBox="0 0 233 61" fill="none" xmlns="http://www.w3.org/2000/svg">
<path d="M72.0021 34.6545C72.035 37.7695 69.1921 40.3962 65.5665 40.534C61.6394 40.6836 60.7445 40.091 57.9731 39.0966L58.408 34.942C60.4586 36.2724 62.8883 36.8625 65.3075 36.6176C65.7675 36.5625 67.2073 36.147 67.3445 35.0424C67.588 33.0557 65.2186 32.6501 64.5615 32.4276C60.4334 31.0493 58.3268 29.541 58.2998 26.7686C58.2592 22.5608 61.5466 20.8616 64.9422 20.708C66.7709 20.7117 68.5886 20.9958 70.3343 21.5507L69.8028 25.3293C68.6924 24.883 67.5271 24.5941 66.3395 24.4708C63.8831 24.3782 62.8608 24.9276 62.8357 26.3394C62.7951 28.3458 64.6968 28.1942 67.2498 29.3421C69.9806 30.0392 71.977 32.0318 72.0021 34.6545Z" fill="white"/>
<path d="M96.7592 20.4344V40.4513H92.1963V29.4032L86.3307 34.6053H86.3597L80.4633 29.4032V40.4553H75.6877V20.4344H76.9865L86.2225 29.1768L95.5649 20.4344H96.7592Z" fill="white"/>
<path d="M113.527 38.3307L105.989 38.2578L105.009 40.4553H99.917L109.404 20.2532H109.984L120.155 40.4553H114.398L113.527 38.3307ZM111.861 34.7156L109.688 29.476L107.516 34.7156H111.861Z" fill="white"/>
<path d="M206.307 38.3307L198.769 38.2578L197.791 40.4553H192.693L202.18 20.2532H202.76L212.932 40.4553H207.178L206.307 38.3307ZM204.641 34.7156L202.468 29.476L200.296 34.7156H204.641Z" fill="white"/>
<path d="M134.024 40.4553L129.706 33.2487H127.289V40.4553H122.722V20.4344H130.493C135.201 20.4344 138.473 23.1595 138.473 26.9636C138.373 28.2445 137.872 29.4589 137.045 30.4285C136.217 31.3981 135.106 32.0719 133.875 32.3508L139.234 40.4474L134.024 40.4553ZM127.289 29.1827H130.497C132.596 29.1827 133.751 28.3143 133.751 27.0778C133.751 25.6581 132.785 24.7544 130.497 24.7544H127.289V29.1827Z" fill="white"/>
<path d="M156.298 24.7544H150.647V40.4553H146.03V24.7544H140.425V20.4344H156.296L156.298 24.7544Z" fill="white"/>
<path d="M175.311 27.3574C175.006 31.2226 172.219 33.1089 167.306 32.9435H164.366V40.4553H159.788V20.4344H167.306C172.315 20.4344 175.636 23.2048 175.311 27.3574ZM170.802 27.0227C170.802 25.5833 169.797 24.7524 167.306 24.7524H164.366V29.1807H167.306C169.797 29.1807 170.802 28.4069 170.802 27.0227Z" fill="white"/>
<path d="M191.199 36.4877V40.4553H179.113V20.4344H183.621V36.4838L191.199 36.4877Z" fill="white"/>
<path d="M233 20.3831V40.7585L231.84 40.7211L220.233 29.5784V40.408H215.682V20.3792H216.803L228.377 31.8389V20.3831H233Z" fill="white"/>
<path d="M0.307288 16.7149L22.4649 0L43.6871 16.3428L40.3379 17.9731L22.3895 4.32001L6.30231 16.4393L27.7023 32.6305L43.6775 20.3064V40.7586L39.9668 38.4903L39.9088 28.5231L30.7636 35.2552L43.6775 44.9506L21.9779 61L0 44.4721L3.44781 42.0857L22.1286 56.359L36.6504 44.4997L24.5444 35.076L0.307288 16.7149Z" fill="white"/>
<path d="M21.6629 37.2911L0.114025 20.901L0 39.7523L3.44202 37.3482V27.9245L21.5392 41.743L27.6521 37.4978L24.5444 35.072" fill="white"/>
</svg>
