<svg xmlns="http://www.w3.org/2000/svg" width="328.304" height="350.092" viewBox="0 0 328.304 350.092">
  <g id="Grupo_248" data-name="Grupo 248" transform="translate(-323.64 -172.986)">
    <g id="Grupo_18" data-name="Grupo 18" transform="translate(323.64 485.767)">
      <path id="Caminho_995" data-name="Caminho 995" d="M349.659,758.641c.06,5.674-5.214,10.453-11.939,10.7-7.281.273-8.942-.806-14.08-2.62l.806-7.556a20.13,20.13,0,0,0,12.8,3.048c.856-.1,3.526-.857,3.778-2.871.452-3.616-3.929-4.357-5.163-4.76-7.654-2.5-11.562-5.253-11.611-10.3-.076-7.657,6.02-10.755,12.317-11.032a33.739,33.739,0,0,1,10,1.536l-.982,6.876a24.263,24.263,0,0,0-6.423-1.562c-4.556-.168-6.445.831-6.5,3.4-.076,3.652,3.451,3.375,8.186,5.466C345.906,750.253,349.608,753.881,349.659,758.641Z" transform="translate(-323.64 -732.437)" fill="#fff"/>
      <path id="Caminho_996" data-name="Caminho 996" d="M421.416,732.4v36.439h-8.463v-20.12l-10.881,9.47h.055l-10.936-9.47v20.12h-8.859V732.4h2.411l17.128,15.917L419.2,732.4Z" transform="translate(-349.481 -732.066)" fill="#fff"/>
      <path id="Caminho_997" data-name="Caminho 997" d="M487.855,764.712l-13.971-.134-1.814,4H462.6L480.2,731.8h1.075l18.864,36.777h-10.67Zm-3.09-6.582-4.03-9.537-4.03,9.537Z" transform="translate(-384.821 -731.8)" fill="#fff"/>
      <path id="Caminho_998" data-name="Caminho 998" d="M795.295,764.712l-13.971-.134-1.813,4H770.04l17.6-36.777h1.075l18.864,36.777h-10.67Zm-3.09-6.582-4.03-9.537-4.03,9.537Z" transform="translate(-520.18 -731.8)" fill="#fff"/>
      <path id="Caminho_999" data-name="Caminho 999" d="M559.159,768.843l-8.01-13.118h-4.483v13.118h-8.46V732.4h14.412c8.733,0,14.8,4.962,14.8,11.886,0,4.581-4.131,8.866-8.53,9.806l9.94,14.747ZM546.665,748.32h5.952c3.893,0,6.037-1.58,6.037-3.829,0-2.587-1.81-4.232-6.037-4.232h-5.952Z" transform="translate(-418.108 -732.066)" fill="#fff"/>
      <path id="Caminho_1000" data-name="Caminho 1000" d="M626.286,740.26H615.808v28.583h-8.564V740.26H596.85V732.4h29.436Z" transform="translate(-443.928 -732.066)" fill="#fff"/>
      <path id="Caminho_1001" data-name="Caminho 1001" d="M689.8,745c-.563,7.035-5.743,10.472-14.843,10.169H669.5v13.672h-8.494V732.4h13.945C684.242,732.4,690.4,737.439,689.8,745Zm-8.362-.611c0-2.62-1.864-4.131-6.481-4.131H669.5v8.06h5.451C679.569,748.32,681.433,746.91,681.433,744.391Z" transform="translate(-472.175 -732.066)" fill="#fff"/>
      <path id="Caminho_1002" data-name="Caminho 1002" d="M747.448,761.619v7.224H725.04V732.4H733.4v29.215Z" transform="translate(-500.367 -732.066)" fill="#fff"/>
      <path id="Caminho_1003" data-name="Caminho 1003" d="M878.346,732.224V769.3l-2.151-.066L854.67,748.946v19.717h-8.428V732.224h2.081l21.46,20.853V732.224Z" transform="translate(-553.73 -731.987)" fill="#fff"/>
    </g>
    <path id="Caminho_1004" data-name="Caminho 1004" d="M494.963,323.108l69.139-51.19,66.226,50.044-10.453,5-56.006-41.812-50.2,37.119,66.789,49.589,49.868-37.747v62.63l-11.583-6.952-.18-30.519-28.536,20.621,40.3,29.695-67.741,49.159-68.575-50.623,10.763-7.316,58.3,43.721,45.3-36.329-37.8-28.858Z" transform="translate(-75.01 -43.558)" fill="#fff"/>
    <path id="Caminho_1005" data-name="Caminho 1005" d="M561.6,436.479l-67.247-50.2L494,444.021l10.738-7.366V407.79l56.473,42.327,19.086-13-9.728-7.427" transform="translate(-75.006 -93.909)" fill="#fff"/>
    <path id="Caminho_1006" data-name="Caminho 1006" d="M479.082,190,714.558,367.016Z" transform="translate(-68.438 -7.49)" fill="#fff"/>
    <path id="Caminho_1007" data-name="Caminho 1007" d="M726.955,353.375,494.011,178.63Z" transform="translate(-75.01 -2.485)" fill="#fff"/>
    <path id="Caminho_1008" data-name="Caminho 1008" d="M328.583,353.8l228.91-169.486Z" transform="translate(-2.176 -4.987)" fill="#fff"/>
    <path id="Caminho_1009" data-name="Caminho 1009" d="M341.037,365.578l230.7-171.313Z" transform="translate(-7.659 -9.369)" fill="#fff"/>
    <path id="Caminho_1010" data-name="Caminho 1010" d="M327.726,390.525,557.115,561.431Z" transform="translate(-1.799 -95.777)" fill="#fff"/>
    <path id="Caminho_1011" data-name="Caminho 1011" d="M334.316,367.988l225.7,169.275Z" transform="translate(-4.7 -85.855)" fill="#fff"/>
    <path id="Caminho_1012" data-name="Caminho 1012" d="M609.044,494.639,358.772,307.465Z" transform="translate(-15.468 -59.208)" fill="#fff"/>
    <path id="Caminho_1013" data-name="Caminho 1013" d="M370.6,293.589,620.084,480.046Z" transform="translate(-20.675 -53.099)" fill="#fff"/>
    <path id="Caminho_1014" data-name="Caminho 1014" d="M384.282,279.457,632.509,465.11Z" transform="translate(-26.699 -46.877)" fill="#fff"/>
    <path id="Caminho_1015" data-name="Caminho 1015" d="M396.578,265.9,644.869,450.049Z" transform="translate(-32.113 -40.908)" fill="#fff"/>
    <path id="Caminho_1016" data-name="Caminho 1016" d="M414.458,479.136,663.784,290.414Z" transform="translate(-39.985 -51.701)" fill="#fff"/>
    <path id="Caminho_1017" data-name="Caminho 1017" d="M426.032,494.639,674.713,307.465Z" transform="translate(-45.081 -59.208)" fill="#fff"/>
    <path id="Caminho_1018" data-name="Caminho 1018" d="M487.475,545.244,717.229,373.723Z" transform="translate(-72.133 -88.38)" fill="#fff"/>
    <path id="Caminho_1019" data-name="Caminho 1019" d="M494.011,561.856,722.734,391.489Z" transform="translate(-75.01 -96.202)" fill="#fff"/>
    <path id="Caminho_1020" data-name="Caminho 1020" d="M716.859,172.986v0Z" transform="translate(-173.125 0)" fill="#fff"/>
    <path id="Caminho_1021" data-name="Caminho 1021" d="M737.553,184.314v0Z" transform="translate(-182.237 -4.987)" fill="#fff"/>
    <path id="Caminho_1022" data-name="Caminho 1022" d="M494.011,178.164v0Z" transform="translate(-75.01 -2.28)" fill="#fff"/>
    <path id="Caminho_1023" data-name="Caminho 1023" d="M513.186,174.209v0Z" transform="translate(-83.453 -0.538)" fill="#fff"/>
  </g>
</svg>
